<svg xmlns="http://www.w3.org/2000/svg" viewBox="0 0 568 240"><defs><style>.cls-1{stroke-width: 3;fill:none;stroke:#000;stroke-linecap:round;stroke-linejoin:round}</style></defs><g id="Ebene_2" data-name="Ebene 2"><circle class="cls-1" cx="199.51" cy="196.26" r="13.68"/><path class="cls-1" d="M218.42 181.92a23.74 23.74 0 11-37.83 0"/><circle class="cls-1" cx="456.52" cy="196.26" r="13.68"/><circle class="cls-1" cx="456.52" cy="196.26" r="23.74"/><path class="cls-1" d="M171.08 205.19H63.72c-6.67 0-12.14-1.54-12.14-4.61V64.68c0-14.88-1-19.26-1-19.26-.53-1.57-3.65-7.07-1.37-8.89s8.38-.91 13.1-.91M427.12 205.19H227.94M62.35 35.62s300.87-1.71 314.71 0C389 37.08 402 44.47 408.12 48.8a9.26 9.26 0 013 3.86 10.48 10.48 0 006.46 5.34 31.94 31.94 0 006.79.8 6.49 6.49 0 015 2.68l9.56 13.27a18 18 0 01-1.19 5.47c-1 2.22-3.49 2.19-9.75 4.45 5.77 4.54 26.32 25.51 37.45 37 4.73 4.87 11.67 10.48 18.37 11.65 15.95 2.81 28.37 13.34 30 22.23 1.18 3.91 5.85 29.69 5.73 32.91s-2.57 5.69-4.12 7.87-12.52 2.5-29.53 3.55"/><rect class="cls-1" x="99.41" y="53.49" width="44.22" height="42.39" rx="3"/><rect class="cls-1" x="73.88" y="109.56" width="69.75" height="83.65" rx="5"/><rect class="cls-1" x="236.6" y="75.96" width="37.38" height="35.78" rx="3"/><rect class="cls-1" x="285.83" y="60" width="44.45" height="131.28" rx="6.5"/><path class="cls-1" d="M333.93 34.94v-.76a5.34 5.34 0 00-5.34-5.34H300c-3.28 0-7 2.74-7 6M262.38 34.87a10.59 10.59 0 00-3.06-9.53C255 21.26 243.78 20.12 237 20c-5.33-.07-18.39 0-23.75 0a3 3 0 00-3 2.42 20.56 20.56 0 00-.37 7.47c-4.8.31-10.1 2.9-10.1 5.1M145.46 35.22S140 29.33 126 29.33s-13.44 3.29-13.44 6M421 86.44a181.47 181.47 0 00-45.81-5.69c-8.74 0 1.31 113.33 13.14 113.33h38.8M428 84.68l-7.01 1.76"/><path class="cls-1" d="M437.75 80.23s-45-16.12-58-17.26S364 60 364 75.28v74.3c0 4.66-.47 9.56 12.29 9.56"/><rect class="cls-1" x="304.98" y="78.69" width="18.69" height="61.31" rx="3.14"/><path class="cls-1" d="M451.46 123.75c.6.64 1.05 1.14 1.34 1.48 3.62 4.26 9.47 14.32-1.14 14.32-7.37 0-52.86.59-62.17-7.23s-11.58-36.43-11.56-39.48 2.94-6 9.5-6 17.51.41 25.28 2.92c4.86 1.58 17.89 13.38 27.87 23.05"/><path class="cls-1" d="M450.34 132.89c-.74 1.77-2.86 3.21-7.06 3.22s-4.55-2.75-4.1-9.85.18-10.1 1.48-13.35c1-2.57 6.27-4.59 9.35 1.87s.33 18.11.33 18.11zM171.08 205.19a23.52 23.52 0 01-.3-3.78c0-14.29 12.86-25.89 28.73-25.89s28.73 11.6 28.73 25.89a20.52 20.52 0 01-.3 3.78M427.12 205.26c.06-21.29 2.54-43.08 29.4-43.08 26.54 0 29.28 16.76 29.4 37.68M483.62 141.61l2.16.41c5.3 1 10.76 2.14 12 2.58 2.39.82 6.53 6.14 8.49 9.69a.4.4 0 01-.4.59c-2.73-.33-12.06-1.54-15.37-3-3.89-1.75-6.18-3.8-9-9.27 0 0-.51-1.53 2.11-1M409.62 88.89l8.89 49.79"/></g></svg>