<svg xmlns="http://www.w3.org/2000/svg" viewBox="0 0 568 240"><defs><style>.cls-1{stroke-width: 3;fill:none;stroke:#000;stroke-linecap:round;stroke-linejoin:round}</style></defs><g id="Ebene_2" data-name="Ebene 2"><circle class="cls-1" cx="462.55" cy="194.52" r="25.48"/><path class="cls-1" d="M494 201.19l17.88.1c8.93 0 16.21-16 11.1-30.38-2.66-7.51-7.2-18.69-13.53-25.8s-13.36-8.29-17.55-9.39-11.7-2.79-11.7-2.79-32-33.79-41-40.51-14.1-10.07-19.9-10.07c-5.08 0-29.85.22-35.93.28A1.37 1.37 0 00382 84c-.09 10.31 0 77.6 15.6 117.31"/><path class="cls-1" d="M229.89 205.57H367c8.35 0 25.75-4.28 30.51-4.28h33.57M419.25 82.35c9.32 0 49.39-.69 56.39-1.27s27.38-2 20.3-16.16-22.11-37.23-47.53-40.12C423.55 22 381.66 20 381.66 20c-41.4 0-75 25.58-111.27 25.58H71.64l-1.36-1.4s-10.85-.22-17.37.94a24.49 24.49 0 00-8.41 2.8 1.14 1.14 0 00-.54 1v.68a1.22 1.22 0 00.44.94c.73.63 2.14 2.32 2.14 6.06 0 5.07-2.64 37.61-2.64 75.86s-2.69 73.13 3.81 73.13h108.47"/><rect class="cls-1" x="245.36" y="78.91" width="48.28" height="28.48" rx="3"/><rect class="cls-1" x="59" y="107.69" width="74.49" height="84.28" rx="5"/><path class="cls-1" d="M369.57 205.57V95.74c0-8.16 5.89-19.65 19.95-20.08S447 74.3 456 74.3s17.59-6 11.53-18.55-11.7-22.67-38.81-24.94c-19.1-1.6-27.45-4.49-30.72-6.06a2.77 2.77 0 01-1.52-3l.17-1M76.82 45.58s.23-6.37 6.56-6.5 18 .3 21.54 2.85 3.47 3.65 3.47 3.65M193.19 45.58s0-6.37 6.33-6.5 18 .3 21.54 2.85 3.47 3.65 3.47 3.65M290.6 43.21s-1.78-5.35 1.15-6.9a123.42 123.42 0 0115.95-6.05c3.77-1 12-3 15.19-3s4.94.7 5.94 3.87M156.18 205.57c0-25.73 11.25-46.3 38.2-46.3s35.51 20.57 35.51 46.3"/><rect class="cls-1" x="270.89" y="104.75" width="126.16" height="48.28" rx="5" transform="rotate(90 333.97 128.89)"/><path class="cls-1" d="M330.59 78.91h18a2 2 0 012 2v58.49a2.06 2.06 0 01-3.22 1.71l-17.18-11.63a4.06 4.06 0 01-1.79-3.37l.16-45.2a2 2 0 012.03-2zM506.67 156a.81.81 0 00.92-1.13c-1.38-3-5.93-7.84-8.49-8.93-2.8-1.19-16.23-5.77-15.31-2.5s4.93 7.73 8 8.84c2.42.85 11.45 2.91 14.88 3.72zM450.2 116.27c-10.87-10.5-23.62-21.47-27.87-23.4-6.73-3.05-23.7-1.87-26.54-1.87a6.67 6.67 0 00-4.67 2.17c-1.83 2.83 1.53 24.08 3.34 30s4.84 17 23.36 18.69 36.31 2.62 43.15 2.23 12.38-1.25 4.24-11.91a101.84 101.84 0 00-7-7.92M420.35 92.17l10.37 50.82"/><circle class="cls-1" cx="462.55" cy="194.52" r="14.68"/><path class="cls-1" d="M431.12 201.29V201c0-21 3.37-41.75 31.43-41.75S494 180.07 494 201v.17M457.37 136.25c-.68 1.62-2.6 2.93-6.42 2.94s-4.13-2.51-3.72-9 .16-9.23 1.34-12.2c.93-2.35 5.7-4.19 8.5 1.72s.3 16.54.3 16.54z"/><rect class="cls-1" x="85.21" y="65.81" width="48.28" height="28.48" rx="3"/><circle class="cls-1" cx="193.03" cy="194.52" r="25.48"/><circle class="cls-1" cx="193.03" cy="194.52" r="14.68"/></g></svg>