<svg xmlns="http://www.w3.org/2000/svg" viewBox="0 0 568 240"><defs><style>.cls-1{stroke-width: 3;fill:none;stroke:#000;stroke-linecap:round;stroke-linejoin:round}</style></defs><g id="Ebene_2" data-name="Ebene 2"><circle class="cls-1" cx="183.71" cy="194.38" r="14.76"/><circle class="cls-1" cx="183.71" cy="194.38" r="25.61"/><circle class="cls-1" cx="485.26" cy="194.39" r="14.76"/><circle class="cls-1" cx="485.26" cy="194.39" r="25.61"/><rect class="cls-1" x="37.85" y="81.56" width="72.13" height="96.28" rx="5"/><rect class="cls-1" x="287.25" y="46.51" width="42.06" height="136.32" rx="3.57"/><path class="cls-1" d="M434.75 182.83h-26.84a7.61 7.61 0 01-7.61-7.61V65.32a7.6 7.6 0 017.61-7.6h44.4L452 155c0 5.64-2.11 11.24-4.42 16.38-2.58 5.74-5.88 11.45-12.83 11.45zM480.52 70.66c13.36 24.43 24.53 45.3 30 55.5a15.65 15.65 0 01.53 13.6l-8.94 20.18"/><path class="cls-1" d="M27.84 194.16s-6.16-1.32-6.16-23.27V60.4A24.78 24.78 0 0146 35.53h389.87c10.12 0 22.12-.25 33.24 16.13"/><rect class="cls-1" x="124.54" y="62.06" width="87.23" height="43.95" rx="3"/><rect class="cls-1" x="301.88" y="62.06" width="18.72" height="63.56" rx="2.93"/><rect class="cls-1" x="353.55" y="62.06" width="31.32" height="35.63" rx="3"/><path class="cls-1" d="M413.63 64.58h31.45v46.3h-35.63V68.76a4.18 4.18 0 014.18-4.18zM541.03 117.51l-37.09-3.6M499.15 56.98h-22.01M463.59 50.56a5.65 5.65 0 00-5.42 4.44c-.46 2.24-.2 4.53 2.83 4.53h11.36c1.72 0 1.72 4.77 1.72 4.77s-1.28.62-1.24 1.59 2.39 27.27 2.61 28.76 1.81 1.11 2.83.89 4.37-1.28 4-9.72-2.56-20.08-2.82-21.78c-.4-2.87-.8-6.85-4.73-9.32s-6.94-3.89-8.88-4.11a17.17 17.17 0 00-2.26-.05zM525.7 128.28c1.87-2.26 11.26-.16 15.94 2s10 6.66 10.44 8.86-1 3.27-1.86 3.4-10.18-.35-15.33-3c-3.61-1.82-12.39-7.37-9.19-11.26z"/><path class="cls-1" d="M561.17 150.37s-11.39-.08-18.26-1.36-10.66.31-31.39-20.46"/><path class="cls-1" d="M453.88 194.38H218.26c.06-16.65-11.46-35.2-34.55-35.2s-34.54 18.44-34.54 35c0 .05-2.52.1-2.52.15-15.92 0-118.81-.22-118.81-.22s-12.2 0-16.09-.58-4.72-27-4.86-30.79c-.1-3-.06-86.78 0-124.59A18.21 18.21 0 0125.08 20h410.14c15.6 0 28.61 2.69 39.23 9.45s19.39 19.66 24.7 27.55c4.78 7.09 35 50.64 40.89 59.1a3.9 3.9 0 002.72 1.64 6.7 6.7 0 014.63 2.74c1.58 2.19 4.13 5.92 7.38 11.23a47.81 47.81 0 016.38 18.48 2.68 2.68 0 010 .4v25.7"/><path class="cls-1" d="M516.38 189.12H554a7.19 7.19 0 007.19-7.2v-5.65M453.88 194.38c.67-21.92 9.56-39.23 31.38-39.23 19.9 0 29.14 14.82 31.12 34M21.92 56.98H6.83"/></g></svg>