<svg xmlns="http://www.w3.org/2000/svg" viewBox="0 0 568 240"><defs><style>.cls-1{stroke-width: 3;fill:none;stroke:#000;stroke-linecap:round;stroke-linejoin:round}</style></defs><g id="Ebene_2" data-name="Ebene 2"><circle class="cls-1" cx="454.63" cy="193.88" r="15.05"/><circle class="cls-1" cx="454.63" cy="193.88" r="26.12"/><circle class="cls-1" cx="120.74" cy="193.88" r="15.05"/><circle class="cls-1" cx="120.74" cy="193.88" r="26.12"/><rect class="cls-1" x="260.87" y="67.04" width="60.16" height="40.14" rx="3"/><path class="cls-1" d="M392.87 182.7H172.34a5 5 0 01-4.72-3.46l-3.43-10.85a1.49 1.49 0 011.42-1.95h233a1.42 1.42 0 011.4 1.69l-1.94 10.24a5.33 5.33 0 01-5.2 4.33zM62.52 58.39h286.65v57.74H62.52a3.37 3.37 0 01-3.37-3.37v-51a3.37 3.37 0 013.37-3.37zM442.26 96C431 84.5 414.49 68.52 405.84 64.79c-11.44-4.92-29.76-4-34.28-4-7.13 0-8.85 2.88-8.62 5.95.39 5 2.58 45.84 15.57 53.36s51.64 8.44 60.51 8.37 21.53.69 22.66-1.87c1-2.23-1.17-9.89-7.44-17.81M231.82 20v180.02M349.17 20.09v180.07M48.55 197.66v-76.08c0-5-2.21-10.68-9.59-16.67"/><path class="cls-1" d="M47.06 23a2.81 2.81 0 012.81-2.88h299.3c7.66 0 21.42-.68 40.05 13 25.44 16.57 65.71 60.17 76.15 69 9.62 8.14 14.45 8 29.95 14.62 10.42 4.37 18.45 16.26 20 23.69a34.09 34.09 0 01.23 4.15s9 3.75 10.24 5.82c7.27 10.82 6.45 37.94 6.45 37.94s-2.69 9.4-3.16 9.44c-4.64.37-29 2.28-38.61 2.28 0-23.07-5.46-30.85-10.29-36.58S464.48 156 452.1 156s-23.54 3-29.41 12.63-5.37 30.68-6.63 34c-4.94-.36-39.83-2.44-39.83-2.44h-222.7s4-38.35-33.1-38.35-33.61 38.58-33.61 38.58-29.41.22-33.87 0-4.15-.82-4.4-2.73c-2.78-.39-12.61-1.29-12.61-1.74s-.14-4.6 0-5.19 1.67-.63 1.89-1.08-.44-3.47-.67-5a165.87 165.87 0 01-1.45-22.58c0-1.2 1-4.29 1.29-5.46s1.08-1.44 2.19-1.44c-2-19.91 1-81.38 1-81.38.14-3 1-8.75 1-8.75.54-5.05 6-35.9 6-35.9zM401.68 63.32l11.78 64.06"/><path class="cls-1" d="M501.72 142.33c-12.52-4.17-30.16-12.65-31.51-18a38.06 38.06 0 01-1.1-7.39 1.34 1.34 0 011.91-1.27c3.37 1.61 10.49 3.47 19.54 7.58 7.67 3.49 16.2 16.94 16.2 16.94 3.35 5.58-5 2.16-5 2.16M453 120.75c-.81 2.21-3.14 4-7.76 4s-5-3.43-4.51-12.29.2-12.6 1.63-16.67c1.12-3.2 6.9-5.72 10.28 2.35s.36 22.61.36 22.61z"/></g></svg>